<svg xmlns="http://www.w3.org/2000/svg" width="179" height="179" viewBox="0 0 179 179"><g transform="translate(-0.024)" opacity="0.84"><path d="M89.5,0A89.5,89.5,0,1,1,0,89.5,89.5,89.5,0,0,1,89.5,0Z" transform="translate(0.024)" fill="#ea9f48"/><path d="M62.807,120.6l131.556.07-1.118,65.638-131.521-.14Z" transform="translate(-40.147 -78.471)" fill="#fff"/><g transform="translate(29.472 46.705)"><path d="M87.332,133.7h2.34l-.908,50.443h-2.34Zm75.594,12.331h-1.258l-.7,38.181h1.258Zm6.5,0h-5.135l-.7,38.181h5.135Zm4.087,0h-2.48l-.7,38.181h2.48Zm5.38,0h-1.607l-.7,38.181h1.607Zm16.768,0h1.258l-.7,38.181H194.96Zm-6.5,0H194.3l-.7,38.181h-5.135Zm-4.087,0h2.48l-.7,38.181h-2.48Zm-5.38,0H181.3l-.7,38.181H179ZM140.011,133.7h.873l-.908,50.443H139.1Zm7.161,0h6.847l-.908,50.443h-6.847Zm-3,0h1.712l-.908,50.443h-1.747Zm-13.2,0h6.847l-.908,50.443h-6.847Zm-2.48,0h1.467l-.908,50.443h-1.467Zm-3.528,0h1.712l-.908,50.443h-1.712Zm-4.856,0h3.458l-.943,50.443h-3.458Zm-8.419,0h6.847l-.908,50.443h-6.847Zm-4.052,0H109.1l-.908,50.443H106.72Zm-7.58,0h5.659l-.908,50.443H99.139Zm-7.93,0h2.34l-.908,50.443H91.21Z" transform="translate(-85.69 -133.7)" fill="#56d8b6"/><path d="M84.394,286.9a3.825,3.825,0,0,1,.454-2.2,1.647,1.647,0,0,1,1.432-.629,1.445,1.445,0,0,1,.734.14,1.261,1.261,0,0,1,.454.384,1.072,1.072,0,0,1,.279.454,1.725,1.725,0,0,1,.175.559,5.239,5.239,0,0,1,.14,1.293,4.366,4.366,0,0,1-.419,2.2,1.532,1.532,0,0,1-1.432.7,1.651,1.651,0,0,1-.908-.245,2.053,2.053,0,0,1-.594-.629,4.63,4.63,0,0,1-.279-.838,11.562,11.562,0,0,1-.1-1.188Zm1.258,0a4.839,4.839,0,0,0,.14,1.467c.1.279.245.384.454.384a.305.305,0,0,0,.314-.175.691.691,0,0,0,.175-.489,9.228,9.228,0,0,0,.035-1.118,4.416,4.416,0,0,0-.14-1.467c-.1-.279-.279-.384-.454-.384a.45.45,0,0,0-.454.384,4.576,4.576,0,0,0-.14,1.432h.07V286.9Zm6.288-1.153-1.188-.279a1.626,1.626,0,0,1,1.747-1.432,1.743,1.743,0,0,1,1.293.419,1.344,1.344,0,0,1,.419,1.013,1.2,1.2,0,0,1-.14.629,1.522,1.522,0,0,1-.454.489,2.537,2.537,0,0,1,.419.175,1.654,1.654,0,0,1,.384.454,1.279,1.279,0,0,1,.14.629,2.075,2.075,0,0,1-.245.908,1.874,1.874,0,0,1-.594.7,2.167,2.167,0,0,1-1.013.245,1.964,1.964,0,0,1-.978-.175,2.024,2.024,0,0,1-.594-.489,3.427,3.427,0,0,1-.384-.873l1.258-.175a.969.969,0,0,0,.245.629.47.47,0,0,0,.419.175.533.533,0,0,0,.419-.245,1.083,1.083,0,0,0,.175-.594.76.76,0,0,0-.175-.594.6.6,0,0,0-.454-.245,1.208,1.208,0,0,0-.419.1l.035-1.118h.175a.509.509,0,0,0,.419-.175.736.736,0,0,0,.175-.454.557.557,0,0,0-.14-.419.379.379,0,0,0-.314-.14.445.445,0,0,0-.384.175,1.054,1.054,0,0,0-.175.559Zm7.266,2.9H96.9v-1.293L99.205,284h1.118v3.388h.559v1.188h-.594v1.048H99.17v-.978Zm0-1.188v-1.747l-1.188,1.747Zm5.38-1.712-1.188-.279a1.626,1.626,0,0,1,1.747-1.432,1.743,1.743,0,0,1,1.293.419,1.344,1.344,0,0,1,.419,1.013.954.954,0,0,1-.175.629,1.522,1.522,0,0,1-.454.489,2.537,2.537,0,0,1,.419.175,1.654,1.654,0,0,1,.384.454,1.279,1.279,0,0,1,.14.629,2.075,2.075,0,0,1-.245.908,1.874,1.874,0,0,1-.594.7,2.167,2.167,0,0,1-1.013.245,1.964,1.964,0,0,1-.978-.175,2.024,2.024,0,0,1-.594-.489,3.428,3.428,0,0,1-.384-.873l1.258-.175a.969.969,0,0,0,.245.629.47.47,0,0,0,.419.175.533.533,0,0,0,.419-.245,1.083,1.083,0,0,0,.175-.594.76.76,0,0,0-.175-.594.6.6,0,0,0-.454-.245,1.208,1.208,0,0,0-.419.1l.035-1.118h.175a.509.509,0,0,0,.419-.175.736.736,0,0,0,.175-.454.557.557,0,0,0-.14-.419.379.379,0,0,0-.314-.14.445.445,0,0,0-.384.175,1.054,1.054,0,0,0-.175.559v.1h-.035Zm8.768-.349-1.258.175a.8.8,0,0,0-.175-.454.431.431,0,0,0-.279-.14.508.508,0,0,0-.454.384,3.233,3.233,0,0,0-.175,1.153,2.482,2.482,0,0,1,.454-.419.886.886,0,0,1,.559-.14,1.179,1.179,0,0,1,1.013.559,2.223,2.223,0,0,1,.419,1.327,2.4,2.4,0,0,1-.245,1.013,1.316,1.316,0,0,1-.594.7,1.919,1.919,0,0,1-.978.245,2.115,2.115,0,0,1-1.118-.279,1.638,1.638,0,0,1-.629-.908,4.4,4.4,0,0,1-.245-1.642,3.942,3.942,0,0,1,.489-2.2,1.694,1.694,0,0,1,1.432-.7,2.079,2.079,0,0,1,.873.14.9.9,0,0,1,.489.454,2.024,2.024,0,0,1,.314.734Zm-2.306,2.48a.987.987,0,0,0,.175.7.6.6,0,0,0,.454.279.533.533,0,0,0,.419-.245,1.2,1.2,0,0,0,.175-.7,1.147,1.147,0,0,0-.175-.734.54.54,0,0,0-.419-.245.66.66,0,0,0-.454.245A.936.936,0,0,0,111.048,287.878Zm8.7,1.816h-3.773a2.967,2.967,0,0,1,.419-1.293,6.077,6.077,0,0,1,1.258-1.432,3.07,3.07,0,0,0,.7-.769.873.873,0,0,0,.14-.489.557.557,0,0,0-.14-.419.445.445,0,0,0-.384-.175.553.553,0,0,0-.419.175.965.965,0,0,0-.175.629l-1.258-.14a2.342,2.342,0,0,1,.279-1.013,1.433,1.433,0,0,1,.559-.559,3.025,3.025,0,0,1,2.026,0,1.524,1.524,0,0,1,.594.559,1.931,1.931,0,0,1,.245.873,2.683,2.683,0,0,1-.245.978,4.238,4.238,0,0,1-.873,1.013c-.279.245-.419.384-.489.454l-.314.314h1.991v1.258Zm3.144-5.554h2.969V285.4h-2.026l-.1.838a1.076,1.076,0,0,1,.419-.175,1.7,1.7,0,0,1,.419-.035,1.453,1.453,0,0,1,1.118.489,1.917,1.917,0,0,1,.419,1.293,2.708,2.708,0,0,1-.245,1.048,2.255,2.255,0,0,1-.594.769,1.823,1.823,0,0,1-1.013.279,2.556,2.556,0,0,1-.769-.1,1.677,1.677,0,0,1-.559-.314,2.4,2.4,0,0,1-.384-.454,3.364,3.364,0,0,1-.245-.629l1.293-.175a.836.836,0,0,0,.245.559.47.47,0,0,0,.419.175.533.533,0,0,0,.419-.245,1.628,1.628,0,0,0,0-1.467.66.66,0,0,0-.454-.245.8.8,0,0,0-.384.1c-.1.035-.175.14-.279.279l-1.048-.175.419-2.969Zm9.467,1.258-1.258.175a.8.8,0,0,0-.175-.454.431.431,0,0,0-.279-.14.508.508,0,0,0-.454.384,3.233,3.233,0,0,0-.175,1.153,2.482,2.482,0,0,1,.454-.419.886.886,0,0,1,.559-.14,1.179,1.179,0,0,1,1.013.559,2.223,2.223,0,0,1,.419,1.327,2.4,2.4,0,0,1-.245,1.013,1.316,1.316,0,0,1-.594.7,1.919,1.919,0,0,1-.978.245,2.115,2.115,0,0,1-1.118-.279,1.638,1.638,0,0,1-.629-.908,4.4,4.4,0,0,1-.245-1.642,3.942,3.942,0,0,1,.489-2.2,1.694,1.694,0,0,1,1.432-.7,2.079,2.079,0,0,1,.873.14.9.9,0,0,1,.489.454,2.025,2.025,0,0,1,.314.734Zm-2.306,2.48a.987.987,0,0,0,.175.7.6.6,0,0,0,.454.279.533.533,0,0,0,.419-.245,1.2,1.2,0,0,0,.175-.7,1.147,1.147,0,0,0-.175-.734.54.54,0,0,0-.419-.245.66.66,0,0,0-.454.245A1.125,1.125,0,0,0,130.051,287.878Zm8.314-2.131-1.188-.279a1.626,1.626,0,0,1,1.747-1.432,1.743,1.743,0,0,1,1.293.419,1.344,1.344,0,0,1,.419,1.013,1.2,1.2,0,0,1-.14.629,1.522,1.522,0,0,1-.454.489,2.538,2.538,0,0,1,.419.175,1.654,1.654,0,0,1,.384.454,1.279,1.279,0,0,1,.14.629,1.434,1.434,0,0,1-.245.908,1.874,1.874,0,0,1-.594.7,2.167,2.167,0,0,1-1.013.245,1.964,1.964,0,0,1-.978-.175,2.024,2.024,0,0,1-.594-.489,3.428,3.428,0,0,1-.384-.873l1.258-.175a.969.969,0,0,0,.245.629.47.47,0,0,0,.419.175.533.533,0,0,0,.419-.245,1.083,1.083,0,0,0,.175-.594.76.76,0,0,0-.175-.594.6.6,0,0,0-.454-.245,1.208,1.208,0,0,0-.419.1l.035-1.118h.175a.47.47,0,0,0,.419-.175.736.736,0,0,0,.175-.454.557.557,0,0,0-.14-.419.379.379,0,0,0-.314-.14.445.445,0,0,0-.384.175,1.054,1.054,0,0,0-.175.559Zm8.8-.349-1.258.175a.8.8,0,0,0-.175-.454.431.431,0,0,0-.279-.14.508.508,0,0,0-.454.384,3.233,3.233,0,0,0-.175,1.153,2.482,2.482,0,0,1,.454-.419.886.886,0,0,1,.559-.14,1.179,1.179,0,0,1,1.013.559,2.223,2.223,0,0,1,.419,1.327,2.4,2.4,0,0,1-.245,1.013,1.316,1.316,0,0,1-.594.7,1.844,1.844,0,0,1-.908.245,2.115,2.115,0,0,1-1.118-.279,1.638,1.638,0,0,1-.629-.908,4.4,4.4,0,0,1-.245-1.642,3.942,3.942,0,0,1,.489-2.2,1.694,1.694,0,0,1,1.432-.7,2.079,2.079,0,0,1,.873.14.9.9,0,0,1,.489.454,2.024,2.024,0,0,1,.314.734h.035Zm-2.306,2.48a.987.987,0,0,0,.175.7.6.6,0,0,0,.454.279.533.533,0,0,0,.419-.245,1.2,1.2,0,0,0,.175-.7,1.147,1.147,0,0,0-.175-.734.54.54,0,0,0-.419-.245.66.66,0,0,0-.454.245A.936.936,0,0,0,144.862,287.878Zm5-3.738h3.668v1.048a4.74,4.74,0,0,0-.769,1.153,6.111,6.111,0,0,0-.594,1.642,10.03,10.03,0,0,0-.245,1.712h-1.258a15.835,15.835,0,0,1,.454-2.306,11.925,11.925,0,0,1,1.013-1.991h-2.236V284.1h-.035v.035Zm9.187-.1v5.659h-1.293v-3.738a2.245,2.245,0,0,1-.594.454,1.787,1.787,0,0,1-.734.314v-1.258a3.875,3.875,0,0,0,1.013-.594A2.869,2.869,0,0,0,158,284h1.048Zm7.161,5.659h-3.773a2.967,2.967,0,0,1,.419-1.293,6.077,6.077,0,0,1,1.258-1.432,3.069,3.069,0,0,0,.7-.769.873.873,0,0,0,.14-.489.557.557,0,0,0-.14-.419.445.445,0,0,0-.384-.175.509.509,0,0,0-.419.175.965.965,0,0,0-.175.629l-1.258-.14a2.342,2.342,0,0,1,.279-1.013,1.433,1.433,0,0,1,.559-.559,2.03,2.03,0,0,1,1.013-.175,2.266,2.266,0,0,1,1.048.175,1.524,1.524,0,0,1,.594.559,1.931,1.931,0,0,1,.245.873,2.683,2.683,0,0,1-.245.978,4.238,4.238,0,0,1-.873,1.013c-.279.245-.419.384-.489.454l-.314.314h1.991v1.258Zm3.179-5.554h2.969V285.4h-2.026l-.1.838a1.076,1.076,0,0,1,.419-.175,1.7,1.7,0,0,1,.419-.035,1.453,1.453,0,0,1,1.118.489,1.917,1.917,0,0,1,.419,1.293,2.707,2.707,0,0,1-.245,1.048,2.255,2.255,0,0,1-.594.769,1.823,1.823,0,0,1-1.013.279,2.556,2.556,0,0,1-.769-.1,1.678,1.678,0,0,1-.559-.314,2.4,2.4,0,0,1-.384-.454,3.363,3.363,0,0,1-.245-.629l1.293-.175a.836.836,0,0,0,.245.559.47.47,0,0,0,.419.175.533.533,0,0,0,.419-.245,1.628,1.628,0,0,0,0-1.467.66.66,0,0,0-.454-.245.8.8,0,0,0-.384.1c-.1.035-.175.14-.279.279L169,287.214l.419-2.969Zm8,4.506h-2.306v-1.293L177.385,284H178.5v3.388h.559v1.188H178.5v1.048h-1.118v-.978Zm0-1.188v-1.747l-1.188,1.747Zm9.921-2.061-1.258.175a.8.8,0,0,0-.175-.454.431.431,0,0,0-.279-.14.508.508,0,0,0-.454.384,3.233,3.233,0,0,0-.175,1.153,2.482,2.482,0,0,1,.454-.419.886.886,0,0,1,.559-.14,1.179,1.179,0,0,1,1.013.559,2.223,2.223,0,0,1,.419,1.327,2.4,2.4,0,0,1-.245,1.013,1.316,1.316,0,0,1-.594.7,1.919,1.919,0,0,1-.978.245,2.115,2.115,0,0,1-1.118-.279,1.638,1.638,0,0,1-.629-.908,4.4,4.4,0,0,1-.245-1.642,3.942,3.942,0,0,1,.489-2.2,1.694,1.694,0,0,1,1.432-.7,2.079,2.079,0,0,1,.873.14.9.9,0,0,1,.489.454,2.024,2.024,0,0,1,.314.734ZM185,287.878a.987.987,0,0,0,.175.7.6.6,0,0,0,.454.279.533.533,0,0,0,.419-.245,1.2,1.2,0,0,0,.175-.7,1.147,1.147,0,0,0-.175-.734.54.54,0,0,0-.419-.245.66.66,0,0,0-.454.245A.936.936,0,0,0,185,287.878Zm6.253-2.131-1.188-.279a1.626,1.626,0,0,1,1.747-1.432,1.743,1.743,0,0,1,1.293.419,1.344,1.344,0,0,1,.419,1.013,1.2,1.2,0,0,1-.14.629,1.522,1.522,0,0,1-.454.489,2.537,2.537,0,0,1,.419.175,1.654,1.654,0,0,1,.384.454,1.279,1.279,0,0,1,.14.629,2.075,2.075,0,0,1-.245.908,1.874,1.874,0,0,1-.594.7,2.167,2.167,0,0,1-1.013.245,1.964,1.964,0,0,1-.978-.175,2.025,2.025,0,0,1-.594-.489,3.428,3.428,0,0,1-.384-.873l1.258-.175a.968.968,0,0,0,.245.629.47.47,0,0,0,.419.175.533.533,0,0,0,.419-.245,1.083,1.083,0,0,0,.175-.594.76.76,0,0,0-.175-.594.6.6,0,0,0-.454-.245,1.208,1.208,0,0,0-.419.1l.035-1.118h.175a.47.47,0,0,0,.419-.175.736.736,0,0,0,.175-.454.557.557,0,0,0-.14-.419.379.379,0,0,0-.314-.14.445.445,0,0,0-.384.175,1.054,1.054,0,0,0-.175.559Z" transform="translate(-84.324 -231.496)" fill="#c6cbd6"/></g><path d="M301.742,315.6l-5.275,3.039a6.313,6.313,0,0,0-2.306,8.593l31.474,54.67a3.642,3.642,0,0,0,4.926,1.327l9.921-5.694a3.634,3.634,0,0,0,1.327-4.926l-31.474-54.67a6.313,6.313,0,0,0-8.593-2.306Z" transform="translate(-190.842 -204.831)" fill="#2296d1"/><path d="M301.726,306.8l-6.6,3.808,2.515,4.4,6.6-3.808Z" transform="translate(-192.014 -199.627)" fill="#596366"/><path d="M301.742,315.6l-5.275,3.039a6.313,6.313,0,0,0-2.306,8.593l4.681,8.174,16.174-9.292-4.681-8.174a6.322,6.322,0,0,0-8.593-2.306Z" transform="translate(-190.842 -204.831)" fill="#ecf0f1"/><path d="M202.133,107.1a43.288,43.288,0,1,0-15.894,59.141A43.257,43.257,0,0,0,202.133,107.1Zm-19.7,52.539a35.688,35.688,0,1,1,13.135-48.731A35.7,35.7,0,0,1,182.431,159.642Z" transform="translate(-78.937 -55.577)" fill="#2296d1"/><g transform="translate(50.991 38.601)"><path d="M236.813,110.535a36.567,36.567,0,0,0-5.589.454h.594a35.792,35.792,0,0,1,25.221,61.167A34.12,34.12,0,0,0,236.883,110.5h-.07Z" transform="translate(-201.426 -110.5)" fill="#fff"/><path d="M180.123,194.221a36.568,36.568,0,0,0,5.589-.454h-.594A35.792,35.792,0,0,1,159.9,132.6a34.12,34.12,0,0,0,20.156,61.656h.07Z" transform="translate(-145.924 -124.88)" fill="#fff"/></g></g></svg>